<?xml version="1.0" encoding="UTF-8"?>
<svg id="Layer_2" data-name="Layer 2" xmlns="http://www.w3.org/2000/svg" xmlns:xlink="http://www.w3.org/1999/xlink" viewBox="0 0 40 40">
  <defs>
    <style>
      .cls-1 {
        fill: #00d7ab;
      }

      .cls-2 {
        fill: url(#linear-gradient);
      }
    </style>
    <linearGradient id="linear-gradient" x1="28.55" y1="41.57" x2="6.29" y2="63.84" gradientTransform="translate(0 72.36) scale(1 -1)" gradientUnits="userSpaceOnUse">
      <stop offset="0" stop-color="#ee3f6c"/>
      <stop offset="1" stop-color="#fcb82c"/>
    </linearGradient>
  </defs>
  <g id="Layer_1-2" data-name="Layer 1-2">
    <g>
      <path class="cls-1" d="M38.21,13.04c.03,1.38-.49,2.69-1.46,3.66s-2.2,1.47-3.53,1.47h-.14c-.5,0-.92-.42-.92-.92-.03-1.37.48-2.68,1.46-3.66s2.28-1.5,3.66-1.46c.5.01.91.42.92.92h0Z"/>
      <path class="cls-2" d="M32.23,24.29c-.08.54-.18,1.08-.33,1.61-.34,1.3-1.08,2.5-1.99,3.49-.26.29-.54.57-.83.83-2.02,1.82-4.84,2.87-7.94,2.97h-.53c-4.13,0-8.34-1.66-11.55-4.56-1.17-1.04-2.45-2.47-3.57-4.36,0,0-.66-.99-1.34-2.71s-1.03-3.07-1.03-3.07c-.35-1.42-.6-2.98-.74-4.71-.05-.76.22-1.52.74-2.09.52-.56,1.21-.86,1.99-.86h16.37c2.95,0,5.72,1.17,7.79,3.29.49.5.93,1.04,1.32,1.63s.74,1.17.99,1.78c.28.69.43,1.43.56,2.16s.2,1.53.22,2.31c0,.76-.03,1.51-.15,2.26l.03.02Z"/>
    </g>
  </g>
</svg>