<?xml version="1.0" encoding="UTF-8"?>
<svg id="Layer_2" data-name="Layer 2" xmlns="http://www.w3.org/2000/svg" xmlns:xlink="http://www.w3.org/1999/xlink" viewBox="0 0 31.58 19.71">
  <defs>
    <style>
      .cls-1 {
        fill: #00d7ab;
      }

      .cls-2 {
        fill: url(#linear-gradient);
      }
    </style>
    <linearGradient id="linear-gradient" x1="23.06" y1="17.58" x2="3.45" y2="-2.04" gradientUnits="userSpaceOnUse">
      <stop offset="0" stop-color="#ee3f6c"/>
      <stop offset="1" stop-color="#fcb82c"/>
    </linearGradient>
  </defs>
  <g id="Layer_1-2" data-name="Layer 1">
    <g>
      <path class="cls-1" d="M31.58,1.93c.03,1.22-.43,2.37-1.29,3.23s-1.94,1.3-3.11,1.3c-.04,0-.08,0-.12,0-.44,0-.81-.37-.81-.81-.03-1.21.42-2.36,1.29-3.23s2.01-1.32,3.23-1.29c.44.01.8.37.81.81Z"/>
      <path class="cls-2" d="M26.31,11.85c-.07.48-.16.95-.29,1.42-.3,1.15-.95,2.2-1.75,3.08-.23.26-.48.5-.73.73-1.78,1.6-4.27,2.53-7,2.62-.16,0-.32,0-.47,0-3.64,0-7.35-1.46-10.18-4.02-1.03-.92-2.16-2.18-3.15-3.84,0,0-.58-.87-1.18-2.39s-.91-2.71-.91-2.71C.34,5.49.12,4.11,0,2.59c-.04-.67.19-1.34.65-1.84.46-.49,1.07-.76,1.75-.76h14.43c2.6,0,5.04,1.03,6.87,2.9.43.44.82.92,1.16,1.44s.65,1.03.87,1.57c.25.61.38,1.26.49,1.9s.18,1.35.19,2.04c0,.67-.03,1.33-.13,1.99Z"/>
    </g>
  </g>
</svg>