<svg width="52" height="52" viewBox="0 0 52 52" fill="none" xmlns="http://www.w3.org/2000/svg">
<path d="M25.9964 4.33325C19.4796 4.33325 15.2541 8.70773 10.2567 10.3022C8.22475 10.9505 7.20876 11.2747 6.79759 11.7317C6.38643 12.1886 6.26603 12.8564 6.02522 14.1919C3.44843 28.4829 9.08061 41.6952 22.5126 46.8378C23.9558 47.3903 24.6774 47.6666 26.0035 47.6666C27.3297 47.6666 28.0512 47.3903 29.4943 46.8378C42.9255 41.6951 48.5523 28.4829 45.9748 14.1919C45.7339 12.8561 45.6134 12.1883 45.2021 11.7313C44.7909 11.2743 43.775 10.9504 41.7432 10.3024C36.7438 8.70807 32.5135 4.33325 25.9964 4.33325Z" stroke="url(#paint0_linear_428_9717)" stroke-width="2" stroke-linecap="round" stroke-linejoin="round"/>
<path d="M20.7577 34.3575L20.352 35.2715H20.352L20.7577 34.3575ZM18.7056 32.1589L17.7729 32.5195H17.7729L18.7056 32.1589ZM33.295 32.1589L34.2278 32.5195V32.5195L33.295 32.1589ZM31.243 34.3575L31.6486 35.2715H31.6486L31.243 34.3575ZM31.243 22.7885L31.6486 21.8745V21.8745L31.243 22.7885ZM33.295 24.9871L34.2278 24.6265V24.6265L33.295 24.9871ZM20.7577 22.7885L20.352 21.8745H20.352L20.7577 22.7885ZM18.7056 24.9871L17.7729 24.6265V24.6265L18.7056 24.9871ZM21.2087 22.4792C21.2087 23.0315 21.6564 23.4792 22.2087 23.4792C22.7609 23.4792 23.2087 23.0315 23.2087 22.4792H22.2087H21.2087ZM28.792 22.4792C28.792 23.0315 29.2397 23.4792 29.792 23.4792C30.3443 23.4792 30.792 23.0315 30.792 22.4792H29.792H28.792ZM24.1045 22.4792V23.4792H27.8962V22.4792V21.4792H24.1045V22.4792ZM27.8962 34.6667V33.6667H24.1045V34.6667V35.6667H27.8962V34.6667ZM24.1045 34.6667V33.6667C23.2065 33.6667 22.5866 33.6661 22.1028 33.6308C21.6293 33.5961 21.363 33.5321 21.1633 33.4435L20.7577 34.3575L20.352 35.2715C20.8491 35.4922 21.3728 35.5827 21.957 35.6254C22.5306 35.6674 23.2358 35.6667 24.1045 35.6667V34.6667ZM18.417 28.573H17.417C17.417 29.5067 17.4165 30.2537 17.4551 30.8594C17.4942 31.4728 17.5762 32.0107 17.7729 32.5195L18.7056 32.1589L19.6383 31.7983C19.5464 31.5605 19.4841 31.2519 19.451 30.7323C19.4175 30.2049 19.417 29.5322 19.417 28.573H18.417ZM20.7577 34.3575L21.1633 33.4435C20.4894 33.1444 19.933 32.5605 19.6383 31.7983L18.7056 32.1589L17.7729 32.5195C18.2479 33.7482 19.1678 34.746 20.352 35.2715L20.7577 34.3575ZM33.5837 28.573H32.5837C32.5837 29.5322 32.5832 30.2049 32.5496 30.7323C32.5165 31.2519 32.4542 31.5605 32.3623 31.7983L33.295 32.1589L34.2278 32.5195C34.4245 32.0107 34.5065 31.4728 34.5456 30.8594C34.5841 30.2537 34.5837 29.5067 34.5837 28.573H33.5837ZM27.8962 34.6667V35.6667C28.7649 35.6667 29.47 35.6674 30.0437 35.6254C30.6278 35.5827 31.1515 35.4922 31.6486 35.2715L31.243 34.3575L30.8374 33.4435C30.6377 33.5321 30.3713 33.5961 29.8979 33.6308C29.414 33.6661 28.7942 33.6667 27.8962 33.6667V34.6667ZM33.295 32.1589L32.3623 31.7983C32.0677 32.5605 31.5113 33.1444 30.8374 33.4435L31.243 34.3575L31.6486 35.2715C32.8329 34.746 33.7527 33.7482 34.2278 32.5195L33.295 32.1589ZM27.8962 22.4792V23.4792C28.7942 23.4792 29.414 23.4799 29.8979 23.5152C30.3713 23.5499 30.6377 23.6139 30.8374 23.7025L31.243 22.7885L31.6486 21.8745C31.1515 21.6538 30.6278 21.5633 30.0437 21.5206C29.47 21.4786 28.7649 21.4792 27.8962 21.4792V22.4792ZM33.5837 28.573H34.5837C34.5837 27.6393 34.5841 26.8923 34.5456 26.2866C34.5065 25.6732 34.4245 25.1353 34.2278 24.6265L33.295 24.9871L32.3623 25.3477C32.4542 25.5855 32.5165 25.8941 32.5496 26.4137C32.5832 26.9411 32.5837 27.6138 32.5837 28.573H33.5837ZM31.243 22.7885L30.8374 23.7025C31.5113 24.0016 32.0677 24.5855 32.3623 25.3477L33.295 24.9871L34.2278 24.6265C33.7527 23.3978 32.8329 22.4 31.6486 21.8745L31.243 22.7885ZM24.1045 22.4792V21.4792C23.2358 21.4792 22.5306 21.4786 21.957 21.5206C21.3728 21.5633 20.8491 21.6538 20.352 21.8745L20.7577 22.7885L21.1633 23.7025C21.363 23.6139 21.6293 23.5499 22.1028 23.5152C22.5866 23.4799 23.2065 23.4792 24.1045 23.4792V22.4792ZM18.417 28.573H19.417C19.417 27.6138 19.4175 26.9411 19.451 26.4137C19.4841 25.8941 19.5464 25.5855 19.6383 25.3477L18.7056 24.9871L17.7729 24.6265C17.5762 25.1353 17.4942 25.6732 17.4551 26.2866C17.4165 26.8923 17.417 27.6393 17.417 28.573H18.417ZM20.7577 22.7885L20.352 21.8745C19.1678 22.4 18.2479 23.3978 17.7729 24.6265L18.7056 24.9871L19.6383 25.3477C19.933 24.5855 20.4894 24.0016 21.1633 23.7025L20.7577 22.7885ZM22.2087 22.4792H23.2087V18.823H22.2087H21.2087V22.4792H22.2087ZM29.792 18.823H28.792V22.4792H29.792H30.792V18.823H29.792ZM26.0003 15.1667V16.1667C27.5767 16.1667 28.792 17.39 28.792 18.823H29.792H30.792C30.792 16.2175 28.6121 14.1667 26.0003 14.1667V15.1667ZM22.2087 18.823H23.2087C23.2087 17.39 24.4239 16.1667 26.0003 16.1667V15.1667V14.1667C23.3886 14.1667 21.2087 16.2175 21.2087 18.823H22.2087Z" fill="url(#paint1_linear_428_9717)"/>
<defs>
<linearGradient id="paint0_linear_428_9717" x1="46.5837" y1="25.9999" x2="5.41699" y2="25.9999" gradientUnits="userSpaceOnUse">
<stop stop-color="#EF536B"/>
<stop offset="1" stop-color="#F79355"/>
</linearGradient>
<linearGradient id="paint1_linear_428_9717" x1="33.5837" y1="24.9167" x2="18.417" y2="24.9167" gradientUnits="userSpaceOnUse">
<stop stop-color="#EF536B"/>
<stop offset="1" stop-color="#F79355"/>
</linearGradient>
</defs>
</svg>
