<svg width="50" height="50" viewBox="0 0 50 50" fill="none" xmlns="http://www.w3.org/2000/svg">
<path d="M6.1416 21.4971V31.7336C6.1416 37.5243 6.1416 40.4196 7.94053 42.2185C9.73946 44.0175 12.6348 44.0175 18.4255 44.0175H30.7093C36.5 44.0175 39.3953 44.0175 41.1942 42.2185C42.9931 40.4196 42.9931 37.5243 42.9931 31.7336V21.4971" stroke="url(#paint0_linear_182_5878)" stroke-width="1.44516" stroke-linecap="round"/>
<path d="M30.7096 34.8042C29.3091 36.0474 27.0792 36.8515 24.5677 36.8515C22.0562 36.8515 19.8263 36.0474 18.4258 34.8042" stroke="url(#paint1_linear_182_5878)" stroke-width="1.44516" stroke-linecap="round"/>
<path d="M5.96186 10.7182L5.27403 10.4968L5.27403 10.4968L5.96186 10.7182ZM4.56206 15.0672L5.24988 15.2886V15.2886L4.56206 15.0672ZM43.1738 10.7182L42.4859 10.9396V10.9396L43.1738 10.7182ZM44.5736 15.0672L45.2614 14.8458V14.8458L44.5736 15.0672ZM19.1912 20.5802C18.9108 20.2962 18.4533 20.2933 18.1693 20.5737C17.8853 20.8541 17.8824 21.3116 18.1628 21.5955L18.677 21.0879L19.1912 20.5802ZM30.9729 20.5789C30.6926 20.2949 30.2351 20.2918 29.9511 20.5722C29.667 20.8525 29.664 21.31 29.9443 21.594L30.4586 21.0865L30.9729 20.5789ZM4.86315 19.5932L5.44892 19.1701H5.44892L4.86315 19.5932ZM21.473 17.5838C21.5731 17.1975 21.3411 16.8032 20.9548 16.703C20.5685 16.6029 20.1742 16.8349 20.074 17.2212L20.7735 17.4025L21.473 17.5838ZM33.2532 17.5838C33.3534 17.1975 33.1214 16.8032 32.7351 16.703C32.3488 16.6029 31.9544 16.8349 31.8543 17.2212L32.5538 17.4025L33.2532 17.5838ZM44.2725 19.5932L43.6867 19.1701V19.1701L44.2725 19.5932ZM44.9866 17.8256L44.2727 17.7142V17.7142L44.9866 17.8256ZM4.14898 17.8256L3.43504 17.937V17.937L4.14898 17.8256ZM8.30209 5.89154L7.86987 5.31249V5.31249L8.30209 5.89154ZM5.96186 10.7182L5.27403 10.4968L3.87423 14.8458L4.56206 15.0672L5.24988 15.2886L6.64968 10.9396L5.96186 10.7182ZM43.1738 10.7182L42.4859 10.9396L43.8857 15.2886L44.5736 15.0672L45.2614 14.8458L43.8616 10.4968L43.1738 10.7182ZM13.4637 5.11865V5.84123H35.672V5.11865V4.39607H13.4637V5.11865ZM24.5664 23.5444V22.8218C22.4598 22.8218 20.5572 21.9638 19.1912 20.5802L18.677 21.0879L18.1628 21.5955C19.7903 23.244 22.0592 24.267 24.5664 24.267V23.5444ZM36.3495 23.5444V22.8218C34.2421 22.8218 32.3391 21.9633 30.9729 20.5789L30.4586 21.0865L29.9443 21.594C31.5719 23.2433 33.8415 24.267 36.3495 24.267V23.5444ZM12.7862 23.5444V22.8218C10.0128 22.8218 7.01638 21.3404 5.44892 19.1701L4.86315 19.5932L4.27737 20.0163C6.13118 22.583 9.57433 24.267 12.7862 24.267V23.5444ZM20.7735 17.4025L20.074 17.2212C19.2399 20.4393 16.2949 22.8218 12.7862 22.8218V23.5444V24.267C16.9631 24.267 20.4761 21.4298 21.473 17.5838L20.7735 17.4025ZM32.5538 17.4025L31.8543 17.2212C31.0202 20.4393 28.0752 22.8218 24.5664 22.8218V23.5444V24.267C28.7434 24.267 32.2563 21.4298 33.2532 17.5838L32.5538 17.4025ZM44.2725 19.5932L43.6867 19.1701C42.1192 21.3404 39.1228 22.8218 36.3495 22.8218V23.5444V24.267C39.5613 24.267 43.0045 22.583 44.8582 20.0163L44.2725 19.5932ZM44.5736 15.0672L43.8857 15.2886C44.2665 16.4716 44.3983 16.9092 44.2727 17.7142L44.9866 17.8256L45.7006 17.937C45.885 16.7552 45.6381 16.0162 45.2614 14.8458L44.5736 15.0672ZM44.2725 19.5932L44.8582 20.0163C45.0385 19.7667 45.2236 19.5145 45.3715 19.1819C45.5204 18.847 45.6183 18.4644 45.7006 17.937L44.9866 17.8256L44.2727 17.7142C44.2 18.1803 44.1272 18.4234 44.0509 18.5949C43.9736 18.7687 43.8792 18.9036 43.6867 19.1701L44.2725 19.5932ZM43.1738 10.7182L43.8616 10.4968C43.4317 9.16107 43.092 8.10255 42.7249 7.28518C42.3508 6.45236 41.919 5.80009 41.2657 5.31249L40.8335 5.89154L40.4013 6.4706C40.7835 6.75589 41.0869 7.16569 41.4066 7.87736C41.7332 8.60447 42.046 9.57285 42.4859 10.9396L43.1738 10.7182ZM35.672 5.11865V5.84123C37.0646 5.84123 38.0462 5.8424 38.8111 5.93284C39.556 6.02092 40.0212 6.18688 40.4013 6.4706L40.8335 5.89154L41.2657 5.31249C40.6104 4.82331 39.8702 4.60283 38.9808 4.49768C38.1115 4.3949 37.0301 4.39607 35.672 4.39607V5.11865ZM4.56206 15.0672L3.87423 14.8458C3.49752 16.0162 3.25061 16.7552 3.43504 17.937L4.14898 17.8256L4.86292 17.7142C4.7373 16.9092 4.86912 16.4716 5.24988 15.2886L4.56206 15.0672ZM4.86315 19.5932L5.44892 19.1701C5.25644 18.9036 5.16198 18.7687 5.08469 18.5949C5.00847 18.4234 4.93565 18.1803 4.86292 17.7142L4.14898 17.8256L3.43504 17.937C3.51734 18.4644 3.61523 18.847 3.76415 19.1819C3.91198 19.5145 4.0971 19.7667 4.27737 20.0163L4.86315 19.5932ZM5.96186 10.7182L6.64968 10.9396C7.0896 9.57285 7.40238 8.60448 7.72901 7.87736C8.04869 7.16569 8.35211 6.75589 8.73432 6.4706L8.30209 5.89154L7.86987 5.31249C7.21663 5.80009 6.78486 6.45236 6.41075 7.28518C6.04358 8.10255 5.70397 9.16107 5.27403 10.4968L5.96186 10.7182ZM13.4637 5.11865V4.39607C12.1055 4.39607 11.0241 4.3949 10.1548 4.49768C9.26547 4.60283 8.52523 4.82331 7.86987 5.31249L8.30209 5.89154L8.73432 6.4706C9.11441 6.18688 9.57958 6.02092 10.3245 5.93284C11.0894 5.8424 12.0711 5.84123 13.4637 5.84123V5.11865Z" fill="url(#paint2_linear_182_5878)"/>
<defs>
<linearGradient id="paint0_linear_182_5878" x1="42.9931" y1="32.7573" x2="6.1416" y2="32.7573" gradientUnits="userSpaceOnUse">
<stop stop-color="#EF536B"/>
<stop offset="1" stop-color="#F79355"/>
</linearGradient>
<linearGradient id="paint1_linear_182_5878" x1="30.7096" y1="35.8279" x2="18.4258" y2="35.8279" gradientUnits="userSpaceOnUse">
<stop stop-color="#EF536B"/>
<stop offset="1" stop-color="#F79355"/>
</linearGradient>
<linearGradient id="paint2_linear_182_5878" x1="45.0409" y1="14.3315" x2="4.09473" y2="14.3315" gradientUnits="userSpaceOnUse">
<stop stop-color="#EF536B"/>
<stop offset="1" stop-color="#F79355"/>
</linearGradient>
</defs>
</svg>
